<svg width="182" height="90" viewBox="0 0 182 90" fill="none" xmlns="http://www.w3.org/2000/svg">
<path d="M50.0907 18.9966C53.2834 15.2723 59.0452 15.2723 62.2379 18.9966L101.007 64.2197C105.455 69.4089 101.768 77.4265 94.933 77.4265H17.3955C10.5604 77.4265 6.87326 69.4089 11.3219 64.2197L50.0907 18.9966Z" fill="#4CDA95"/>
<path d="M51.1023 43.4328C53.4892 40.7455 57.6872 40.7455 60.0741 43.4328L81.1059 67.1111C84.5433 70.981 81.7961 77.0956 76.62 77.0956H34.5564C29.3803 77.0956 26.6331 70.981 30.0705 67.1111L51.1023 43.4328Z" fill="#14A181"/>
<path d="M48.4854 46.4379H62.691L90.392 77.4103H20.7844L48.4854 46.4379Z" fill="#14A181"/>
<path d="M101.912 33.0882H144.265V79.4118H101.912V33.0882Z" fill="#043D74"/>
<path d="M144.265 45H181.324V76.4118C181.324 78.0686 179.981 79.4118 178.324 79.4118H144.265V45Z" fill="#043D74"/>
<rect x="144.265" y="11.9118" width="22.5" height="33.0882" fill="#043D74"/>
<rect x="125.412" y="41.7059" width="3" height="3" fill="#D9D9D9"/>
<rect x="132.412" y="41.7059" width="3" height="3" fill="#D9D9D9"/>
<rect x="125.412" y="48.7059" width="3" height="3" fill="#D9D9D9"/>
<rect x="132.412" y="48.7059" width="3" height="3" fill="#D9D9D9"/>
<rect x="147.912" y="16.5588" width="3" height="3" fill="#D9D9D9"/>
<rect x="154.912" y="16.5588" width="3" height="3" fill="#D9D9D9"/>
<rect x="147.912" y="23.5588" width="3" height="3" fill="#D9D9D9"/>
<rect x="154.912" y="23.5588" width="3" height="3" fill="#D9D9D9"/>
<rect x="147.912" y="30.5588" width="3" height="3" fill="#D9D9D9"/>
<rect x="154.912" y="30.5588" width="3" height="3" fill="#D9D9D9"/>
<rect x="147.912" y="37.5588" width="3" height="3" fill="#D9D9D9"/>
<rect x="154.912" y="37.5588" width="3" height="3" fill="#D9D9D9"/>
<rect x="121.853" y="60.2353" width="3" height="3" fill="#D9D9D9"/>
<rect x="111.853" y="67.2353" width="3" height="3" fill="#D9D9D9"/>
<rect x="121.853" y="67.2353" width="3" height="3" fill="#D9D9D9"/>
<rect x="131.853" y="60.2353" width="3" height="3" fill="#D9D9D9"/>
<rect x="131.853" y="67.2353" width="3" height="3" fill="#D9D9D9"/>
<rect x="164.206" y="50.9706" width="3" height="3" fill="#D9D9D9"/>
<rect x="153.206" y="57.9706" width="3" height="3" fill="#D9D9D9"/>
<rect x="164.206" y="57.9706" width="3" height="3" fill="#D9D9D9"/>
<rect x="153.206" y="64.9706" width="3" height="3" fill="#D9D9D9"/>
<rect x="164.206" y="64.9706" width="3" height="3" fill="#D9D9D9"/>
<path d="M99.6135 83.4806C98.8237 84.6845 97.0589 84.6845 96.2691 83.4806L71.318 45.4501C70.4454 44.12 71.3995 42.3529 72.9902 42.3529L122.892 42.3529C124.483 42.3529 125.437 44.12 124.565 45.4501L99.6135 83.4806Z" fill="#FF652F"/>
<circle cx="97.9412" cy="30.4412" r="30.4412" fill="#FF652F"/>
<circle cx="97.9412" cy="31.7647" r="23.8235" fill="#FF652F"/>
<path d="M87.353 37.1176C87.353 32.6994 90.9348 29.1176 95.353 29.1176H100.529C104.948 29.1176 108.529 32.6994 108.529 37.1176V53.2022C100.261 56.3733 95.6199 56.3938 87.353 53.2022V37.1176Z" fill="white"/>
<path d="M75.4412 39.0441H83.0294C84.6863 39.0441 86.0294 40.3873 86.0294 42.0441V52.2794C82.9689 50.7066 80.0735 48.3088 79.4118 47.6471C78.75 46.9853 75.5394 44.2665 75.4412 39.0441Z" fill="white"/>
<path d="M120.441 38.3824H112.853C111.196 38.3824 109.853 39.7255 109.853 41.3824V51.6176C112.913 50.0448 115.809 47.6471 116.471 46.9853C117.132 46.3235 120.343 43.6047 120.441 38.3824Z" fill="white"/>
<circle cx="97.9411" cy="18.5294" r="6.61765" fill="white"/>
<circle cx="114.485" cy="29.7794" r="5.95588" fill="white"/>
<circle cx="81.397" cy="29.7794" r="5.95588" fill="white"/>
</svg>
