<svg width="86" height="59" viewBox="0 0 86 59" fill="none" xmlns="http://www.w3.org/2000/svg">
<g id="montain">
<path id="Polygon 1" d="M36.8616 7.08481C40.0543 3.36055 45.8162 3.36055 49.0089 7.08481L74.0486 36.2932C78.4972 41.4825 74.8101 49.5 67.9749 49.5H17.8955C11.0604 49.5 7.37326 41.4825 11.8219 36.2932L36.8616 7.08481Z" fill="#4CDA95"/>
<g id="Group 4">
<path id="Polygon 2" d="M38.0141 25.0504C40.401 22.3631 44.599 22.3631 46.9859 25.0504L59.6122 39.2655C63.0495 43.1354 60.3023 49.25 55.1263 49.25H29.8737C24.6977 49.25 21.9505 43.1354 25.3878 39.2655L38.0141 25.0504Z" fill="#14A181"/>
<path id="Polygon 3" d="M37.1334 26.0864H47.8666L68.7962 49.4878H16.2038L37.1334 26.0864Z" fill="#14A181"/>
</g>
</g>
</svg>
